# xmcd
#
# Track frame offsets:
#	150
#	14463
#	29974
#	43086
#	55560
#	69404
#	86096
#	101171
#	118074
#	132043
#
# Disc length: 1971 seconds
#
# Revision: 0
# Processed by: cddbd v1.5.1PL2 Copyright (c) Steve Scherf et al.
# Submitted via: dBpowerAMP V4.0
#
DISCID=8a07b10a
DTITLE=T.C. Taylor - Dancehall Revival
DYEAR=2003
DGENRE=Country
TTITLE0=1 - I will Wait
TTITLE1=2 - Tequila
TTITLE2=3 - She's In the Bedroom Crying
TTITLE3=4 - Go Tell Papa
TTITLE4=5 - Mexican Radio
TTITLE5=6 - Dancehall Revival
TTITLE6=7 - Spilled Perfume
TTITLE7=8 - I Can't
TTITLE8=9 - Cowboy Hat
TTITLE9=10 - Trail of aers
EXTD=
EXTT0=
EXTT1=
EXTT2=
EXTT3=
EXTT4=
EXTT5=
EXTT6=
EXTT7=
EXTT8=
EXTT9=
PLAYORDER=
